<svg width="16" height="17" viewBox="0 0 16 17" fill="none" xmlns="http://www.w3.org/2000/svg">
<path d="M6.73684 5.1009C6.73684 2.13462 3.95789 0.222265 3.84 0.14577C3.70074 0.050768 3.53651 0 3.36842 0C3.20034 0 3.0361 0.050768 2.89684 0.14577C2.77895 0.230764 0 2.16862 0 5.1009C0 6.00256 0.354886 6.8673 0.986588 7.50488C1.61829 8.14246 2.47506 8.50064 3.36842 8.50064C4.26178 8.50064 5.11855 8.14246 5.75025 7.50488C6.38196 6.8673 6.73684 6.00256 6.73684 5.1009ZM3.36842 6.80077C2.92174 6.80077 2.49336 6.62168 2.1775 6.30289C1.86165 5.9841 1.68421 5.55173 1.68421 5.1009C1.74192 4.48717 1.92066 3.89129 2.20989 3.34831C2.49913 2.80533 2.89303 2.32621 3.36842 1.93914C3.84559 2.32456 4.24073 2.80328 4.53014 3.34658C4.81955 3.88989 4.99726 4.48659 5.05263 5.1009C5.05263 5.55173 4.87519 5.9841 4.55934 6.30289C4.24349 6.62168 3.8151 6.80077 3.36842 6.80077ZM13.1032 0.14577C12.9639 0.050768 12.7997 0 12.6316 0C12.4635 0 12.2993 0.050768 12.16 0.14577C12.0421 0.230764 9.26316 2.16862 9.26316 5.1009C9.26316 6.00256 9.61804 6.8673 10.2497 7.50488C10.8814 8.14246 11.7382 8.50064 12.6316 8.50064C13.5249 8.50064 14.3817 8.14246 15.0134 7.50488C15.6451 6.8673 16 6.00256 16 5.1009C16 2.13462 13.2211 0.222265 13.1032 0.14577ZM12.6316 6.80077C12.1849 6.80077 11.7565 6.62168 11.4407 6.30289C11.1248 5.9841 10.9474 5.55173 10.9474 5.1009C11.0051 4.48717 11.1838 3.89129 11.473 3.34831C11.7623 2.80533 12.1562 2.32621 12.6316 1.93914C13.1088 2.32456 13.5039 2.80328 13.7933 3.34658C14.0827 3.88989 14.2604 4.48659 14.3158 5.1009C14.3158 5.55173 14.1383 5.9841 13.8225 6.30289C13.5066 6.62168 13.0783 6.80077 12.6316 6.80077ZM8.89263 8.64513C8.75338 8.55013 8.58914 8.49936 8.42105 8.49936C8.25297 8.49936 8.08873 8.55013 7.94947 8.64513C7.83158 8.73012 5.05263 10.668 5.05263 13.6003C5.05263 14.5019 5.40752 15.3667 6.03922 16.0042C6.67092 16.6418 7.52769 17 8.42105 17C9.31441 17 10.1712 16.6418 10.8029 16.0042C11.4346 15.3667 11.7895 14.5019 11.7895 13.6003C11.7895 10.634 9.01053 8.72162 8.89263 8.64513ZM8.42105 15.3001C7.97437 15.3001 7.54599 15.121 7.23014 14.8022C6.91429 14.4835 6.73684 14.0511 6.73684 13.6003C6.79456 12.9865 6.97329 12.3907 7.26252 11.8477C7.55176 11.3047 7.94566 10.8256 8.42105 10.4385C8.89823 10.8239 9.29336 11.3026 9.58277 11.8459C9.87218 12.3892 10.0499 12.9859 10.1053 13.6003C10.1053 14.0511 9.92782 14.4835 9.61197 14.8022C9.29612 15.121 8.86773 15.3001 8.42105 15.3001Z" fill="#95B0C5"/>
</svg>
