<svg width="14" height="26" viewBox="0 0 14 26" fill="none" xmlns="http://www.w3.org/2000/svg">
<path d="M6.99998 7.39995C7.21215 7.39995 7.41564 7.48424 7.56567 7.63427C7.71569 7.7843 7.79998 7.98778 7.79998 8.19995V16.3008C8.55411 16.4955 9.21133 16.9585 9.64846 17.6032C10.0856 18.2478 10.2726 19.0297 10.1745 19.8024C10.0763 20.575 9.69977 21.2853 9.11537 21.8002C8.53096 22.3151 7.77884 22.5991 6.99998 22.5991C6.22112 22.5991 5.469 22.3151 4.88459 21.8002C4.30019 21.2853 3.92362 20.575 3.82548 19.8024C3.72734 19.0297 3.91437 18.2478 4.3515 17.6032C4.78863 16.9585 5.44585 16.4955 6.19998 16.3008V8.19995C6.19998 7.98778 6.28426 7.7843 6.43429 7.63427C6.58432 7.48424 6.78781 7.39995 6.99998 7.39995ZM6.99998 0.199951C5.72694 0.199951 4.50604 0.705664 3.60587 1.60584C2.70569 2.50601 2.19998 3.72691 2.19998 4.99995V15.1664C1.38531 16.0901 0.854494 17.2293 0.671226 18.4473C0.487958 19.6652 0.660024 20.9102 1.16678 22.0328C1.67353 23.1553 2.49344 24.1079 3.52813 24.776C4.56281 25.4442 5.76832 25.7996 6.99998 25.7996C8.23164 25.7996 9.43715 25.4442 10.4718 24.776C11.5065 24.1079 12.3264 23.1553 12.8332 22.0328C13.3399 20.9102 13.512 19.6652 13.3287 18.4473C13.1455 17.2293 12.6146 16.0901 11.8 15.1664V4.99995C11.8 3.72691 11.2943 2.50601 10.3941 1.60584C9.49392 0.705664 8.27302 0.199951 6.99998 0.199951ZM6.99998 1.79995C7.84867 1.79995 8.6626 2.13709 9.26272 2.73721C9.86284 3.33733 10.2 4.15126 10.2 4.99995V15.808L10.4288 16.04C11.0902 16.7151 11.5376 17.5705 11.7148 18.4989C11.8921 19.4273 11.7913 20.3873 11.4251 21.2587C11.0589 22.13 10.4437 22.8738 9.65646 23.3969C8.86925 23.92 7.94513 24.199 6.99998 24.199C6.05483 24.199 5.13071 23.92 4.3435 23.3969C3.55629 22.8738 2.94103 22.13 2.57485 21.2587C2.20868 20.3873 2.10789 19.4273 2.28513 18.4989C2.46238 17.5705 2.90976 16.7151 3.57118 16.04L3.79998 15.808V4.99995C3.79998 4.15126 4.13712 3.33733 4.73724 2.73721C5.33735 2.13709 6.15129 1.79995 6.99998 1.79995Z" fill="#95B0C5"/>
</svg>
