<svg width="32" height="32" viewBox="0 0 32 32" fill="none" xmlns="http://www.w3.org/2000/svg">
<path d="M16 10.4C16.2122 10.4 16.4156 10.4842 16.5657 10.6343C16.7157 10.7843 16.8 10.9878 16.8 11.2V19.3008C17.5541 19.4955 18.2113 19.9585 18.6485 20.6032C19.0856 21.2478 19.2726 22.0297 19.1745 22.8024C19.0763 23.575 18.6998 24.2853 18.1154 24.8002C17.531 25.3151 16.7788 25.5991 16 25.5991C15.2211 25.5991 14.469 25.3151 13.8846 24.8002C13.3002 24.2853 12.9236 23.575 12.8255 22.8024C12.7273 22.0297 12.9144 21.2478 13.3515 20.6032C13.7886 19.9585 14.4459 19.4955 15.2 19.3008V11.2C15.2 10.9878 15.2843 10.7843 15.4343 10.6343C15.5843 10.4842 15.7878 10.4 16 10.4ZM16 3.19995C14.7269 3.19995 13.506 3.70566 12.6059 4.60584C11.7057 5.50601 11.2 6.72691 11.2 7.99995V18.1664C10.3853 19.0901 9.85449 20.2293 9.67123 21.4473C9.48796 22.6652 9.66002 23.9102 10.1668 25.0328C10.6735 26.1553 11.4934 27.1079 12.5281 27.776C13.5628 28.4442 14.7683 28.7996 16 28.7996C17.2316 28.7996 18.4371 28.4442 19.4718 27.776C20.5065 27.1079 21.3264 26.1553 21.8332 25.0328C22.3399 23.9102 22.512 22.6652 22.3287 21.4473C22.1455 20.2293 21.6146 19.0901 20.8 18.1664V7.99995C20.8 6.72691 20.2943 5.50601 19.3941 4.60584C18.4939 3.70566 17.273 3.19995 16 3.19995ZM16 4.79995C16.8487 4.79995 17.6626 5.13709 18.2627 5.73721C18.8628 6.33733 19.2 7.15126 19.2 7.99995V18.808L19.4288 19.04C20.0902 19.7151 20.5376 20.5705 20.7148 21.4989C20.8921 22.4273 20.7913 23.3873 20.4251 24.2587C20.0589 25.13 19.4437 25.8738 18.6565 26.3969C17.8692 26.92 16.9451 27.199 16 27.199C15.0548 27.199 14.1307 26.92 13.3435 26.3969C12.5563 25.8738 11.941 25.13 11.5749 24.2587C11.2087 23.3873 11.1079 22.4273 11.2851 21.4989C11.4624 20.5705 11.9098 19.7151 12.5712 19.04L12.8 18.808V7.99995C12.8 7.15126 13.1371 6.33733 13.7372 5.73721C14.3374 5.13709 15.1513 4.79995 16 4.79995Z" fill="#95B0C5"/>
</svg>
