<svg width="56" height="56" viewBox="0 0 56 56" fill="none" xmlns="http://www.w3.org/2000/svg">
<path d="M16.9167 33.8333C15.3697 33.8333 13.8859 33.2187 12.792 32.1247C11.698 31.0307 11.0834 29.547 11.0834 27.9999C11.0834 26.4528 11.698 24.9691 12.792 23.8751C13.8859 22.7812 15.3697 22.1666 16.9167 22.1666C18.4638 22.1666 19.9476 22.7812 21.0415 23.8751C22.1355 24.9691 22.7501 26.4528 22.7501 27.9999C22.7501 29.547 22.1355 31.0307 21.0415 32.1247C19.9476 33.2187 18.4638 33.8333 16.9167 33.8333ZM51.3334 27.9999C51.3334 24.9057 50.1043 21.9383 47.9163 19.7503C45.7284 17.5624 42.7609 16.3333 39.6668 16.3333H16.3334C13.2392 16.3333 10.2718 17.5624 8.08384 19.7503C5.89591 21.9383 4.66675 24.9057 4.66675 27.9999C4.66675 31.0941 5.89591 34.0616 8.08384 36.2495C10.2718 38.4374 13.2392 39.6666 16.3334 39.6666H39.6668C42.7609 39.6666 45.7284 38.4374 47.9163 36.2495C50.1043 34.0616 51.3334 31.0941 51.3334 27.9999ZM39.6668 19.8333C40.7392 19.8333 41.8012 20.0445 42.792 20.4549C43.7828 20.8653 44.6831 21.4669 45.4415 22.2252C46.1998 22.9836 46.8014 23.8838 47.2118 24.8747C47.6222 25.8655 47.8334 26.9275 47.8334 27.9999C47.8334 29.0724 47.6222 30.1343 47.2118 31.1252C46.8014 32.116 46.1998 33.0163 45.4415 33.7746C44.6831 34.533 43.7828 35.1345 42.792 35.5449C41.8012 35.9554 40.7392 36.1666 39.6668 36.1666H16.3334C15.261 36.1666 14.199 35.9554 13.2082 35.5449C12.2173 35.1345 11.3171 34.533 10.5587 33.7746C9.80036 33.0163 9.19881 32.116 8.7884 31.1252C8.37799 30.1343 8.16675 29.0724 8.16675 27.9999C8.16675 26.9275 8.37799 25.8655 8.7884 24.8747C9.19881 23.8838 9.80036 22.9836 10.5587 22.2252C11.3171 21.4669 12.2173 20.8653 13.2082 20.4549C14.199 20.0445 15.261 19.8333 16.3334 19.8333H39.6668Z" fill="#111C34"/>
</svg>
