<svg width="32" height="32" viewBox="0 0 32 32" fill="none" xmlns="http://www.w3.org/2000/svg">
<path d="M29.0001 27.5861L21.4481 20.0341C23.2629 17.8554 24.1679 15.061 23.9748 12.232C23.7817 9.40309 22.5054 6.75751 20.4114 4.84563C18.3173 2.93376 15.5669 1.90279 12.7321 1.9672C9.89729 2.03161 7.19647 3.18644 5.19146 5.19146C3.18644 7.19647 2.03161 9.89729 1.9672 12.7321C1.90279 15.5669 2.93376 18.3173 4.84563 20.4114C6.75751 22.5054 9.40309 23.7817 12.232 23.9748C15.061 24.1679 17.8554 23.2629 20.0341 21.4481L27.5861 29.0001L29.0001 27.5861ZM4.00012 13.0001C4.00012 11.2201 4.52796 9.48003 5.51689 7.99998C6.50582 6.51994 7.91143 5.36639 9.55596 4.6852C11.2005 4.00401 13.0101 3.82578 14.7559 4.17305C16.5018 4.52032 18.1054 5.37748 19.3641 6.63615C20.6227 7.89483 21.4799 9.49847 21.8272 11.2443C22.1745 12.9901 21.9962 14.7997 21.315 16.4443C20.6338 18.0888 19.4803 19.4944 18.0002 20.4833C16.5202 21.4723 14.7801 22.0001 13.0001 22.0001C10.614 21.9975 8.32633 21.0484 6.63908 19.3612C4.95182 17.6739 4.00276 15.3863 4.00012 13.0001Z" fill="#001029"/>
</svg>
