<svg width="23" height="23" viewBox="0 0 23 23" fill="none" xmlns="http://www.w3.org/2000/svg">
<g clip-path="url(#clip0_67_412)">
<path d="M10.9911 1.64744C11.0579 1.5805 11.1372 1.5274 11.2245 1.49116C11.3118 1.45493 11.4054 1.43628 11.5 1.43628C11.5945 1.43628 11.6881 1.45493 11.7754 1.49116C11.8628 1.5274 11.9421 1.5805 12.0088 1.64744L14.1651 3.80369C14.2319 3.87052 14.2849 3.94985 14.3211 4.03716C14.3573 4.12448 14.3759 4.21806 14.3759 4.31256C14.3759 4.40707 14.3573 4.50065 14.3211 4.58797C14.2849 4.67528 14.2319 4.75461 14.1651 4.82144C14.0983 4.88827 14.0189 4.94127 13.9316 4.97744C13.8443 5.01361 13.7507 5.03222 13.6562 5.03222C13.5617 5.03222 13.4681 5.01361 13.3808 4.97744C13.2935 4.94127 13.2142 4.88827 13.1473 4.82144L12.2187 3.89138V6.46881C12.2187 6.65944 12.143 6.84225 12.0082 6.97705C11.8734 7.11184 11.6906 7.18756 11.5 7.18756C11.3093 7.18756 11.1265 7.11184 10.9917 6.97705C10.8569 6.84225 10.7812 6.65944 10.7812 6.46881V3.89138L9.8526 4.82144C9.78577 4.88827 9.70644 4.94127 9.61912 4.97744C9.53181 5.01361 9.43823 5.03222 9.34372 5.03222C9.24922 5.03222 9.15563 5.01361 9.06832 4.97744C8.98101 4.94127 8.90167 4.88827 8.83485 4.82144C8.76802 4.75461 8.71501 4.67528 8.67885 4.58797C8.64268 4.50065 8.62406 4.40707 8.62406 4.31256C8.62406 4.21806 8.64268 4.12448 8.67885 4.03716C8.71501 3.94985 8.76802 3.87052 8.83485 3.80369L10.9911 1.64744ZM3.36803 6.24313C3.50282 6.10838 3.6856 6.03269 3.87619 6.03269C4.06678 6.03269 4.24956 6.10838 4.38435 6.24313L6.41697 8.27575C6.5479 8.41131 6.62035 8.59287 6.61871 8.78132C6.61707 8.96977 6.54148 9.15005 6.40822 9.28331C6.27495 9.41657 6.09468 9.49216 5.90623 9.4938C5.71778 9.49544 5.53622 9.42299 5.40066 9.29206L3.36803 7.25944C3.23329 7.12465 3.15759 6.94187 3.15759 6.75128C3.15759 6.5607 3.23329 6.37791 3.36803 6.24313ZM19.6319 6.24313C19.7667 6.37791 19.8424 6.5607 19.8424 6.75128C19.8424 6.94187 19.7667 7.12465 19.6319 7.25944L17.5993 9.29206C17.533 9.36071 17.4537 9.41547 17.366 9.45314C17.2783 9.4908 17.184 9.51063 17.0885 9.51146C16.9931 9.51229 16.8985 9.49411 16.8101 9.45797C16.7218 9.42183 16.6416 9.36846 16.5741 9.30097C16.5066 9.23349 16.4532 9.15324 16.4171 9.06491C16.3809 8.97657 16.3627 8.88193 16.3636 8.78649C16.3644 8.69106 16.3842 8.59674 16.4219 8.50905C16.4596 8.42136 16.5143 8.34205 16.583 8.27575L18.6156 6.24313C18.7504 6.10838 18.9332 6.03269 19.1238 6.03269C19.3143 6.03269 19.4971 6.10838 19.6319 6.24313ZM11.5 10.0626C12.2571 10.0623 13.0009 10.2614 13.6567 10.6398C14.3125 11.0182 14.857 11.5626 15.2357 12.2182C15.6144 12.8739 15.8137 13.6176 15.8138 14.3747C15.8139 15.1318 15.6146 15.8756 15.236 16.5313H7.76247C7.38385 15.8755 7.18459 15.1316 7.18471 14.3744C7.18483 13.6171 7.38434 12.8733 7.76316 12.2176C8.14199 11.562 8.68679 11.0176 9.34275 10.6393C9.99872 10.261 10.7427 10.0621 11.5 10.0626ZM16.8331 16.5313C17.1855 15.6585 17.3183 14.7126 17.2198 13.7765C17.1213 12.8404 16.7945 11.9428 16.2681 11.1625C15.7417 10.3822 15.0318 9.74306 14.2006 9.3012C13.3695 8.85934 12.4427 8.62827 11.5014 8.62827C10.5601 8.62827 9.63328 8.85934 8.80217 9.3012C7.97107 9.74306 7.26114 10.3822 6.73473 11.1625C6.20831 11.9428 5.8815 12.8404 5.78299 13.7765C5.68448 14.7126 5.81727 15.6585 6.16972 16.5313H0.717285C0.526661 16.5313 0.343844 16.607 0.209052 16.7418C0.0742604 16.8766 -0.00146484 17.0594 -0.00146484 17.2501C-0.00146484 17.4407 0.0742604 17.6235 0.209052 17.7583C0.343844 17.8931 0.526661 17.9688 0.717285 17.9688H22.2798C22.4704 17.9688 22.6532 17.8931 22.788 17.7583C22.9228 17.6235 22.9985 17.4407 22.9985 17.2501C22.9985 17.0594 22.9228 16.8766 22.788 16.7418C22.6532 16.607 22.4704 16.5313 22.2798 16.5313H16.8317H16.8331ZM-2.73436e-05 14.3751C-2.73436e-05 14.1844 0.0756979 14.0016 0.21049 13.8668C0.345281 13.732 0.528098 13.6563 0.718723 13.6563H3.59372C3.78435 13.6563 3.96716 13.732 4.10196 13.8668C4.23675 14.0016 4.31247 14.1844 4.31247 14.3751C4.31247 14.5657 4.23675 14.7485 4.10196 14.8833C3.96716 15.0181 3.78435 15.0938 3.59372 15.0938H0.718723C0.528098 15.0938 0.345281 15.0181 0.21049 14.8833C0.0756979 14.7485 -2.73436e-05 14.5657 -2.73436e-05 14.3751ZM18.6875 14.3751C18.6875 14.1844 18.7632 14.0016 18.898 13.8668C19.0328 13.732 19.2156 13.6563 19.4062 13.6563H22.2812C22.4718 13.6563 22.6547 13.732 22.7895 13.8668C22.9242 14.0016 23 14.1844 23 14.3751C23 14.5657 22.9242 14.7485 22.7895 14.8833C22.6547 15.0181 22.4718 15.0938 22.2812 15.0938H19.4062C19.2156 15.0938 19.0328 15.0181 18.898 14.8833C18.7632 14.7485 18.6875 14.5657 18.6875 14.3751Z" fill="#F8D047"/>
</g>
<defs>
<clipPath id="clip0_67_412">
<rect width="23" height="23" fill="white"/>
</clipPath>
</defs>
</svg>
