<svg width="23" height="23" viewBox="0 0 23 23" fill="none" xmlns="http://www.w3.org/2000/svg">
<g clip-path="url(#clip0_67_414)">
<path d="M10.9911 6.97762C11.0579 7.04456 11.1372 7.09767 11.2245 7.1339C11.3118 7.17013 11.4054 7.18878 11.5 7.18878C11.5945 7.18878 11.6881 7.17013 11.7754 7.1339C11.8628 7.09767 11.9421 7.04456 12.0088 6.97762L14.1651 4.82138C14.2319 4.75455 14.2849 4.67521 14.3211 4.5879C14.3573 4.50059 14.3759 4.40701 14.3759 4.3125C14.3759 4.21799 14.3573 4.12441 14.3211 4.0371C14.2849 3.94979 14.2319 3.87045 14.1651 3.80362C14.0983 3.7368 14.0189 3.68379 13.9316 3.64762C13.8443 3.61146 13.7507 3.59284 13.6562 3.59284C13.5617 3.59284 13.4681 3.61146 13.3808 3.64762C13.2935 3.68379 13.2142 3.7368 13.1473 3.80362L12.2187 4.73369V2.15625C12.2187 1.96563 12.143 1.78281 12.0082 1.64802C11.8734 1.51323 11.6906 1.4375 11.5 1.4375C11.3093 1.4375 11.1265 1.51323 10.9917 1.64802C10.8569 1.78281 10.7812 1.96563 10.7812 2.15625V4.73369L9.8526 3.80362C9.78577 3.7368 9.70644 3.68379 9.61912 3.64762C9.53181 3.61146 9.43823 3.59284 9.34372 3.59284C9.24922 3.59284 9.15563 3.61146 9.06832 3.64762C8.98101 3.68379 8.90167 3.7368 8.83485 3.80362C8.76802 3.87045 8.71501 3.94979 8.67885 4.0371C8.64268 4.12441 8.62406 4.21799 8.62406 4.3125C8.62406 4.40701 8.64268 4.50059 8.67885 4.5879C8.71501 4.67521 8.76802 4.75455 8.83485 4.82138L10.9911 6.97762ZM3.36803 6.2445C3.50282 6.10976 3.6856 6.03406 3.87619 6.03406C4.06678 6.03406 4.24956 6.10976 4.38435 6.2445L6.41697 8.27569C6.5479 8.41125 6.62035 8.5928 6.61871 8.78126C6.61707 8.96971 6.54148 9.14998 6.40822 9.28324C6.27495 9.41651 6.09468 9.4921 5.90623 9.49373C5.71778 9.49537 5.53622 9.42293 5.40066 9.292L3.36803 7.25938C3.23329 7.12459 3.15759 6.94181 3.15759 6.75122C3.15759 6.56063 3.23329 6.37785 3.36803 6.24306V6.2445ZM19.6319 6.2445C19.7662 6.37923 19.8416 6.5617 19.8416 6.75194C19.8416 6.94217 19.7662 7.12465 19.6319 7.25938L17.5993 9.292C17.533 9.36065 17.4537 9.4154 17.366 9.45307C17.2783 9.49074 17.184 9.51057 17.0885 9.5114C16.9931 9.51223 16.8985 9.49404 16.8101 9.4579C16.7218 9.42176 16.6416 9.36839 16.5741 9.30091C16.5066 9.23342 16.4532 9.15317 16.4171 9.06484C16.3809 8.97651 16.3627 8.88187 16.3636 8.78643C16.3644 8.691 16.3842 8.59668 16.4219 8.50899C16.4596 8.4213 16.5143 8.34199 16.583 8.27569L18.6156 6.24306C18.7504 6.10832 18.9332 6.03262 19.1238 6.03262C19.3143 6.03262 19.4971 6.10832 19.6319 6.24306V6.2445ZM11.5 10.0625C12.2571 10.0623 13.0009 10.2614 13.6567 10.6398C14.3125 11.0182 14.857 11.5626 15.2357 12.2182C15.6144 12.8738 15.8137 13.6176 15.8138 14.3747C15.8139 15.1318 15.6146 15.8756 15.236 16.5312H7.76247C7.38385 15.8755 7.18459 15.1315 7.18471 14.3743C7.18483 13.6171 7.38434 12.8732 7.76316 12.2176C8.14199 11.5619 8.68679 11.0175 9.34275 10.6392C9.99872 10.2609 10.7427 10.062 11.5 10.0625ZM16.8331 16.5312C17.1855 15.6585 17.3183 14.7125 17.2198 13.7764C17.1213 12.8403 16.7945 11.9427 16.2681 11.1624C15.7417 10.3821 15.0318 9.743 14.2006 9.30114C13.3695 8.85928 12.4427 8.6282 11.5014 8.6282C10.5601 8.6282 9.63328 8.85928 8.80217 9.30114C7.97107 9.743 7.26114 10.3821 6.73473 11.1624C6.20831 11.9427 5.8815 12.8403 5.78299 13.7764C5.68448 14.7125 5.81727 15.6585 6.16972 16.5312H0.717285C0.526661 16.5312 0.343844 16.607 0.209052 16.7418C0.0742604 16.8766 -0.00146484 17.0594 -0.00146484 17.25C-0.00146484 17.4406 0.0742604 17.6234 0.209052 17.7582C0.343844 17.893 0.526661 17.9688 0.717285 17.9688H22.2798C22.4704 17.9688 22.6532 17.893 22.788 17.7582C22.9228 17.6234 22.9985 17.4406 22.9985 17.25C22.9985 17.0594 22.9228 16.8766 22.788 16.7418C22.6532 16.607 22.4704 16.5312 22.2798 16.5312H16.8317H16.8331ZM-2.73436e-05 14.375C-2.73436e-05 14.1844 0.0756979 14.0016 0.21049 13.8668C0.345281 13.732 0.528098 13.6562 0.718723 13.6562H3.59372C3.78435 13.6562 3.96716 13.732 4.10196 13.8668C4.23675 14.0016 4.31247 14.1844 4.31247 14.375C4.31247 14.5656 4.23675 14.7484 4.10196 14.8832C3.96716 15.018 3.78435 15.0938 3.59372 15.0938H0.718723C0.528098 15.0938 0.345281 15.018 0.21049 14.8832C0.0756979 14.7484 -2.73436e-05 14.5656 -2.73436e-05 14.375ZM18.6875 14.375C18.6875 14.1844 18.7632 14.0016 18.898 13.8668C19.0328 13.732 19.2156 13.6562 19.4062 13.6562H22.2812C22.4718 13.6562 22.6547 13.732 22.7895 13.8668C22.9242 14.0016 23 14.1844 23 14.375C23 14.5656 22.9242 14.7484 22.7895 14.8832C22.6547 15.018 22.4718 15.0938 22.2812 15.0938H19.4062C19.2156 15.0938 19.0328 15.018 18.898 14.8832C18.7632 14.7484 18.6875 14.5656 18.6875 14.375Z" fill="#F8D047"/>
</g>
<defs>
<clipPath id="clip0_67_414">
<rect width="23" height="23" fill="white"/>
</clipPath>
</defs>
</svg>
