<?xml version="1.0" encoding="UTF-8"?><svg xmlns="http://www.w3.org/2000/svg" viewBox="0 0 46.67 23.33"><defs><style>.cls-1{fill:#fff;}.cls-2{fill:#111c34;}</style></defs><g id="base"><g><rect class="cls-1" x="1.5" y="1.5" width="43.67" height="20.33" rx="9.97" ry="9.97"/><path class="cls-2" d="M35.2,3c4.67,0,8.47,3.8,8.47,8.47v.39c0,4.67-3.8,8.47-8.47,8.47H11.47c-4.67,0-8.47-3.8-8.47-8.47v-.39C3,6.8,6.8,3,11.47,3h23.73m0-3H11.47C5.14,0,0,5.14,0,11.47v.39c0,6.33,5.14,11.47,11.47,11.47h23.73c6.33,0,11.47-5.14,11.47-11.47v-.39c0-6.33-5.14-11.47-11.47-11.47h0Z"/></g></g><g id="cirkel"><g><path class="cls-2" d="M12.88,18.33c-3.67,0-6.66-2.99-6.66-6.66s2.99-6.66,6.66-6.66,6.66,2.99,6.66,6.66-2.99,6.66-6.66,6.66Z"/><path class="cls-2" d="M12.88,5.5c3.4,0,6.16,2.76,6.16,6.16s-2.76,6.16-6.16,6.16-6.16-2.76-6.16-6.16,2.76-6.16,6.16-6.16m0-1c-3.96,0-7.16,3.21-7.16,7.16s3.21,7.16,7.16,7.16,7.16-3.21,7.16-7.16-3.21-7.16-7.16-7.16h0Z"/></g></g></svg>